# xmcd
#
# Track frame offsets: 
#        150
#        18649
#        36939
#        56908
#        81461
#        106394
#        131556
#        155434
#        170854
#        196830
#        220187
#        240855
#        265199
#        283729
#
# Disc length: 4048 seconds
#
# Revision: 0
# Processed by: cddbd v1.5.2PL0 Copyright (c) Steve Scherf et al.
# Submitted via: ExactAudioCopy v0.95b2
#
DISCID=cc0fce0e
DTITLE=The Beat Daddys - Live At The Quincy Blues Fest 2007
DYEAR=2007
DGENRE=Blues
TTITLE0=She's All That
TTITLE1=Train In The Distance
TTITLE2=Beautician Blues
TTITLE3=Beverly Hillbillies
TTITLE4=Pale White Circle
TTITLE5=Beg Borrow Steal
TTITLE6=Evil Memory
TTITLE7=Sloppy Drunk
TTITLE8=Hey Joe
TTITLE9=Little Wing
TTITLE10=Bad News
TTITLE11=I'll Always Love You
TTITLE12=Big Thighs
TTITLE13=Where Is She
EXTD=
EXTT0=
EXTT1=
EXTT2=
EXTT3=
EXTT4=
EXTT5=
EXTT6=
EXTT7=
EXTT8=
EXTT9=
EXTT10=
EXTT11=
EXTT12=
EXTT13=
PLAYORDER=
